<?xml version="1.0" encoding="UTF-8" standalone="no"?>
<svg
   xmlns:dc="http://purl.org/dc/elements/1.1/"
   xmlns:cc="http://creativecommons.org/ns#"
   xmlns:rdf="http://www.w3.org/1999/02/22-rdf-syntax-ns#"
   xmlns:svg="http://www.w3.org/2000/svg"
   xmlns="http://www.w3.org/2000/svg"
   version="1.1"
   id="svg2"
   viewBox="0 0 744.09448819 1052.3622047"
   height="297mm"
   width="210mm">
  <defs
     id="defs4" />
  <metadata
     id="metadata7">
    <rdf:RDF>
      <cc:Work
         rdf:about="">
        <dc:format>image/svg+xml</dc:format>
        <dc:type
           rdf:resource="http://purl.org/dc/dcmitype/StillImage" />
        <dc:title></dc:title>
      </cc:Work>
    </rdf:RDF>
  </metadata>
  <g
     id="layer1">
    <g
       transform="matrix(6.8630943,0,0,6.8514398,-1843.8283,-3052.2079)"
       id="g4147">
      <path
         id="path4149"
         d="m 318.35712,571.96754 c -15.03954,-2.36682 -24.76177,-6.94143 -33.49472,-15.76029 -21.15067,-21.35874 -21.16754,-55.03422 -0.0381,-76.16361 21.12939,-21.12939 54.80487,-21.11252 76.16361,0.0382 10.12985,10.03117 15.69584,23.50468 15.69584,37.99472 0,28.74685 -21.24587,51.25504 -50.82658,53.84644 -2.75,0.24091 -6.125,0.26098 -7.5,0.0446 z m 17.46504,-4.92394 c 3.23688,-0.8431 8.16892,-2.74958 10.9601,-4.23662 6.51912,-3.47316 17.33217,-14.28621 20.80533,-20.80533 7.66457,-14.38638 7.66457,-33.4639 0,-47.85028 -3.47316,-6.51912 -14.28621,-17.33217 -20.80533,-20.80533 -14.38638,-7.66457 -33.4639,-7.66457 -47.85028,0 -6.51912,3.47316 -17.33217,14.28621 -20.80533,20.80533 -7.66457,14.38638 -7.66457,33.4639 0,47.85028 3.47922,6.53049 14.2897,17.33393 20.8351,20.82153 10.55473,5.6239 25.08485,7.28756 36.86041,4.22042 z m -5.73066,-25.30392 c -1.5211,-1.003 -3.3211,-2.56803 -4,-3.47783 -1.03938,-1.39287 -3.68302,-1.69615 -16.73438,-1.91977 l -15.5,-0.26557 -0.27114,-19.75 -0.27114,-19.75 4.40451,0 c 3.5635,0 4.50437,-0.38188 4.92752,-2 0.28765,-1.1 0.96266,-2 1.5,-2 0.53734,0 1.21234,0.9 1.5,2 0.48942,1.87154 1.36402,2 13.61663,2 12.42695,0 13.09362,-0.10183 13.09362,-2 0,-1.1 0.49213,-2 1.09362,-2 0.60149,0 1.32897,0.9 1.61663,2 0.40975,1.56687 1.36402,2 4.40638,2 l 3.88337,0 0,9.53055 0,9.53055 3.48605,3.0608 c 5.5335,4.85847 6.44316,11.5363 2.55991,18.79222 -3.02276,5.64807 -13.6454,7.98533 -19.31158,4.24905 z m 11.54774,-1.52515 c 4.49281,-1.90161 6.79924,-4.82575 7.41247,-9.39766 0.99415,-7.412 -4.33669,-13.24036 -12.11013,-13.24036 -4.62594,0 -10.27353,4.82565 -11.15661,9.5329 -0.88552,4.72021 2.08953,10.47623 6.57215,12.71555 4.21683,2.10654 5.13452,2.14506 9.28212,0.38957 z m -9.27842,-6.13408 c -2.70207,-2.87622 -2.17838,-4.25449 0.88874,-2.33904 1.90524,1.18984 2.47649,0.86896 6.55257,-3.68071 2.45595,-2.74131 4.48553,-4.35076 4.51018,-3.57656 0.0483,1.51672 -7.73758,12.09237 -8.90249,12.09237 -0.38724,0 -1.75929,-1.12323 -3.049,-2.49606 z m -8.59567,-5.75394 c 0.33058,-2.8875 0.5894,-6.92031 0.57517,-8.96179 l -0.0259,-3.7118 4.77134,-0.0801 c 11.86754,-0.19933 12.27135,-0.27078 12.27135,-2.17124 0,-1.71263 -1.38573,-1.82503 -22.5,-1.82503 l -22.5,0 0,11 0,11 13.40349,0 13.40348,0 0.60106,-5.25 z m -22.40803,-3.25 c 0,-2 0.5,-2.5 2.5,-2.5 2,0 2.5,0.5 2.5,2.5 0,2 -0.5,2.5 -2.5,2.5 -2,0 -2.5,-0.5 -2.5,-2.5 z m 7,0 c 0,-2.11111 0.46667,-2.5 3,-2.5 2.53333,0 3,0.38889 3,2.5 0,2.11111 -0.46667,2.5 -3,2.5 -2.53333,0 -3,-0.38889 -3,-2.5 z m 8,0 c 0,-2 0.5,-2.5 2.5,-2.5 2,0 2.5,0.5 2.5,2.5 0,2 -0.5,2.5 -2.5,2.5 -2,0 -2.5,-0.5 -2.5,-2.5 z m -15,-7 c 0,-2 0.5,-2.5 2.5,-2.5 2,0 2.5,0.5 2.5,2.5 0,2 -0.5,2.5 -2.5,2.5 -2,0 -2.5,-0.5 -2.5,-2.5 z m 7,0 c 0,-2.11111 0.46667,-2.5 3,-2.5 2.53333,0 3,0.38889 3,2.5 0,2.11111 -0.46667,2.5 -3,2.5 -2.53333,0 -3,-0.38889 -3,-2.5 z m 8,0 c 0,-2 0.5,-2.5 2.5,-2.5 2,0 2.5,0.5 2.5,2.5 0,2 -0.5,2.5 -2.5,2.5 -2,0 -2.5,-0.5 -2.5,-2.5 z m 25,-14.5 c 0,-4.84395 -0.09,-5 -2.88337,-5 -2.04236,0 -3.03592,0.58335 -3.40638,2 -0.28766,1.1 -1.01514,2 -1.61663,2 -0.60149,0 -1.09362,-0.9 -1.09362,-2 0,-1.90124 -0.66667,-2 -13.5,-2 -12.83333,0 -13.5,0.0988 -13.5,2 0,1.1 -0.41968,2 -0.93261,2 -0.51294,0 -1.21826,-0.9 -1.56739,-2 -0.44467,-1.40104 -1.51303,-2 -3.56739,-2 -2.85247,0 -2.93261,0.13664 -2.93261,5 l 0,5 22.5,0 22.5,0 0,-5 z"
         style="fill:#fbad17" />
    </g>
  </g>
</svg>
