<?xml version="1.0" encoding="UTF-8" standalone="no"?>
<svg
   xmlns:dc="http://purl.org/dc/elements/1.1/"
   xmlns:cc="http://creativecommons.org/ns#"
   xmlns:rdf="http://www.w3.org/1999/02/22-rdf-syntax-ns#"
   xmlns:svg="http://www.w3.org/2000/svg"
   xmlns="http://www.w3.org/2000/svg"
   version="1.1"
   id="svg4163"
   viewBox="0 0 744.09448819 1052.3622047"
   height="297mm"
   width="210mm">
  <defs
     id="defs4165" />
  <metadata
     id="metadata4168">
    <rdf:RDF>
      <cc:Work
         rdf:about="">
        <dc:format>image/svg+xml</dc:format>
        <dc:type
           rdf:resource="http://purl.org/dc/dcmitype/StillImage" />
        <dc:title></dc:title>
      </cc:Work>
    </rdf:RDF>
  </metadata>
  <g
     id="layer1">
    <g
       transform="matrix(6.8041462,0,0,6.9182721,-2018.1761,-3137.8425)"
       id="g4722">
      <path
         id="path4724"
         d="m 339.92856,580.84435 c -18.91212,-4.0463 -34.71104,-18.56281 -40.09371,-36.83928 -2.32568,-7.89669 -2.32568,-21.10331 0,-29 5.47811,-18.60053 21.2839,-32.90065 40.80155,-36.91476 9.60551,-1.97553 11.97881,-1.97553 21.58432,0 19.51765,4.01411 35.32344,18.31423 40.80155,36.91476 2.32568,7.89669 2.32568,21.10331 0,29 -5.47811,18.60053 -21.2839,32.90065 -40.80155,36.91476 -9.26285,1.90505 -13.09595,1.89207 -22.29216,-0.0755 z m 23.5,-3.42457 c 21.84622,-5.03142 38,-25.39993 38,-47.91471 0,-22.51478 -16.15378,-42.88329 -38,-47.91471 -5.78025,-1.33125 -18.21975,-1.33125 -24,0 -11.48659,2.64548 -23.08651,10.79953 -29.919,21.03127 -16.35355,24.48963 -7.21407,57.68969 19.50369,70.84909 3.34658,1.6483 7.84658,3.41013 10,3.91518 5.40081,1.26667 18.98077,1.28551 24.41531,0.0339 z m -40,-23.41471 c 0,-1.2956 3.61111,-1.5 26.5,-1.5 22.88889,0 26.5,0.2044 26.5,1.5 0,1.2956 -3.61111,1.5 -26.5,1.5 -22.88889,0 -26.5,-0.2044 -26.5,-1.5 z m 21,-4.53338 c -12.98243,-1.62424 -21.95153,-12.64201 -23.66917,-29.07554 l -0.61574,-5.89108 29.39245,-0.21978 c 40.24537,-0.30094 36.85431,-0.52589 39.5642,2.62454 4.18931,4.87037 2.34391,12.62049 -3.8975,16.36822 -1.80083,1.08133 -5.52424,2.7818 -8.27424,3.77881 -2.75,0.99702 -6.84757,3.48015 -9.10571,5.51808 -2.25815,2.03793 -5.12818,4.25253 -6.37785,4.92133 -3.12196,1.67082 -11.59191,2.65409 -17.01644,1.97542 z m 13.78212,-4.51967 c 7.4915,-3.12938 13.16886,-11.17377 15.00132,-21.25574 l 0.94353,-5.19121 -25.23438,0 -25.23438,0 0.85282,4.56493 c 1.94526,10.41249 7.13461,18.18055 14.38897,21.53921 4.96024,2.29651 14.21137,2.46099 19.28212,0.34281 z m 23.86341,-14.03172 c 4.32834,-2.48191 6.81803,-6.98546 5.63521,-10.19341 -0.92324,-2.50396 -2.31909,-3.18931 -6.53074,-3.20651 -3.30061,-0.0135 -3.75,0.27361 -3.75,2.3956 0,1.32599 -0.85811,5.16802 -1.90692,8.53784 l -1.90692,6.12694 2.15692,-0.64169 c 1.18631,-0.35292 4.02241,-1.71137 6.30245,-3.01877 z"
         style="fill:#fbad17" />
    </g>
  </g>
</svg>
