<?xml version="1.0" encoding="UTF-8" standalone="no"?>
<svg
   xmlns:dc="http://purl.org/dc/elements/1.1/"
   xmlns:cc="http://creativecommons.org/ns#"
   xmlns:rdf="http://www.w3.org/1999/02/22-rdf-syntax-ns#"
   xmlns:svg="http://www.w3.org/2000/svg"
   xmlns="http://www.w3.org/2000/svg"
   version="1.1"
   id="svg4730"
   viewBox="0 0 744.09448819 1052.3622047"
   height="297mm"
   width="210mm">
  <defs
     id="defs4732" />
  <metadata
     id="metadata4735">
    <rdf:RDF>
      <cc:Work
         rdf:about="">
        <dc:format>image/svg+xml</dc:format>
        <dc:type
           rdf:resource="http://purl.org/dc/dcmitype/StillImage" />
        <dc:title></dc:title>
      </cc:Work>
    </rdf:RDF>
  </metadata>
  <g
     id="layer1">
    <g
       transform="matrix(6.8095291,0,0,6.9050464,-1535.3278,-3758.7573)"
       id="g5289">
      <path
         id="path5291"
         d="m 270.00003,673.98349 c -29.00523,-6.26476 -47.95435,-32.6389 -43.68312,-60.7999 3.11954,-20.56769 17.25883,-36.80864 38.18312,-43.85866 7.58005,-2.55395 23.41995,-2.55395 31,0 20.92429,7.05002 35.06358,23.29097 38.18312,43.85866 4.73978,31.25021 -19.15124,59.85644 -51.18312,61.28481 -4.675,0.20847 -10.3,-0.01 -12.5,-0.48491 z m 21.79681,-4.53899 c 27.15278,-7.0724 43.85296,-34.05163 37.17153,-60.05081 -6.9131,-26.90068 -34.64615,-43.77415 -60.76515,-36.97101 -27.15278,7.0724 -43.85296,34.05163 -37.17153,60.05081 2.34971,9.14331 6.38164,16.3085 12.96834,23.0462 12.50335,12.78998 31.21955,18.24264 47.79681,13.92481 z m -32.29681,-44.02901 0,-29.5181 23.75,0.2681 23.75,0.2681 0.27059,20.21491 0.2706,20.21492 -9.2706,9.03228 -9.27059,9.03229 -14.75,0.003 -14.75,0.003 0,-29.5181 z m 28,18.5181 0,-8 8.5,0 8.5,0 0,-19 0,-19 -21.5,0 -21.5,0 0,27 0,27 13,0 13,0 0,-8 z m -17.75,-15.66228 c -3.19548,-1.2894 -0.61697,-2.33772 5.75,-2.33772 6.60278,0 8.95129,1.03724 5.41821,2.39301 -1.85425,0.71155 -9.35988,0.67439 -11.16821,-0.0553 z m -1.00909,-7.56046 c 0.31874,-0.95621 3.98671,-1.27726 14.59242,-1.27726 19.30623,0 18.95142,1.9092 -0.42321,2.27726 -11.49193,0.21832 -14.50444,0.006 -14.16921,-1 z m -0.24091,-6.77726 c 0,-0.6224 5.68634,-1 15.05902,-1 9.7847,0 14.84255,0.35024 14.44098,1 -0.36586,0.59197 -6.51038,1 -15.05902,1 -8.96065,0 -14.44098,-0.3795 -14.44098,-1 z m 0.66667,-5.66667 c -1.81952,-1.81951 0.12565,-2.33333 8.83333,-2.33333 8.77651,0 11.78496,0.9092 7.91821,2.39301 -2.14435,0.82286 -15.91807,0.7738 -16.75154,-0.0597 z m 27.83333,35.66667 5.93739,-6 -6.21869,0 -6.2187,0 0,6 c 0,3.3 0.12659,6 0.2813,6 0.15472,0 2.95313,-2.7 6.2187,-6 z"
         style="fill:#fbad17" />
    </g>
  </g>
</svg>
